<mxfile host="app.diagrams.net" modified="2023-03-29T19:06:20.433Z" agent="Mozilla/5.0 (Windows NT 10.0; Win64; x64; rv:105.0) Gecko/20100101 Firefox/105.0" etag="FOE0gsimPzt2zYAxvpa4" version="21.1.2" type="device">
  <diagram name="Seite-1" id="s6zwPOkHVIaQKdSOuICa">
    <mxGraphModel dx="1434" dy="774" grid="1" gridSize="10" guides="1" tooltips="1" connect="1" arrows="1" fold="1" page="1" pageScale="1" pageWidth="827" pageHeight="1169" math="0" shadow="0">
      <root>
        <mxCell id="0" />
        <mxCell id="1" parent="0" />
        <mxCell id="IYP4boaDb1MK-Y9kAv3H-1" value="Film" style="rounded=0;whiteSpace=wrap;html=1;" vertex="1" parent="1">
          <mxGeometry x="90" y="90" width="120" height="60" as="geometry" />
        </mxCell>
        <mxCell id="IYP4boaDb1MK-Y9kAv3H-2" value="Genre" style="rounded=0;whiteSpace=wrap;html=1;" vertex="1" parent="1">
          <mxGeometry x="90" y="310" width="120" height="60" as="geometry" />
        </mxCell>
        <mxCell id="IYP4boaDb1MK-Y9kAv3H-3" value="Schauspieler" style="rounded=0;whiteSpace=wrap;html=1;" vertex="1" parent="1">
          <mxGeometry x="390" y="90" width="120" height="60" as="geometry" />
        </mxCell>
        <mxCell id="IYP4boaDb1MK-Y9kAv3H-10" value="&lt;h1&gt;Arten von Beziehungen&lt;br&gt;&lt;/h1&gt;&lt;p&gt;1 : 1 Beziehung&lt;/p&gt;&lt;p&gt;1 : n Beziehung&lt;/p&gt;&lt;p&gt;m : n Beziehung&lt;br&gt;&lt;/p&gt;" style="text;html=1;strokeColor=none;fillColor=none;spacing=5;spacingTop=-20;whiteSpace=wrap;overflow=hidden;rounded=0;" vertex="1" parent="1">
          <mxGeometry x="80" y="440" width="520" height="130" as="geometry" />
        </mxCell>
        <mxCell id="IYP4boaDb1MK-Y9kAv3H-17" value="" style="endArrow=classic;startArrow=classic;html=1;rounded=0;exitX=0.5;exitY=0;exitDx=0;exitDy=0;entryX=0.5;entryY=1;entryDx=0;entryDy=0;" edge="1" parent="1" source="IYP4boaDb1MK-Y9kAv3H-2" target="IYP4boaDb1MK-Y9kAv3H-1">
          <mxGeometry width="50" height="50" relative="1" as="geometry">
            <mxPoint x="390" y="390" as="sourcePoint" />
            <mxPoint x="440" y="340" as="targetPoint" />
          </mxGeometry>
        </mxCell>
        <mxCell id="IYP4boaDb1MK-Y9kAv3H-19" value="n" style="edgeLabel;html=1;align=center;verticalAlign=middle;resizable=0;points=[];" vertex="1" connectable="0" parent="IYP4boaDb1MK-Y9kAv3H-17">
          <mxGeometry x="0.75" relative="1" as="geometry">
            <mxPoint x="10" as="offset" />
          </mxGeometry>
        </mxCell>
        <mxCell id="IYP4boaDb1MK-Y9kAv3H-20" value="1" style="edgeLabel;html=1;align=center;verticalAlign=middle;resizable=0;points=[];" vertex="1" connectable="0" parent="IYP4boaDb1MK-Y9kAv3H-17">
          <mxGeometry x="-0.675" y="-1" relative="1" as="geometry">
            <mxPoint x="9" as="offset" />
          </mxGeometry>
        </mxCell>
        <mxCell id="IYP4boaDb1MK-Y9kAv3H-18" value="" style="endArrow=classic;startArrow=classic;html=1;rounded=0;exitX=1;exitY=0.5;exitDx=0;exitDy=0;entryX=0;entryY=0.5;entryDx=0;entryDy=0;" edge="1" parent="1" source="IYP4boaDb1MK-Y9kAv3H-1" target="IYP4boaDb1MK-Y9kAv3H-3">
          <mxGeometry width="50" height="50" relative="1" as="geometry">
            <mxPoint x="390" y="390" as="sourcePoint" />
            <mxPoint x="440" y="340" as="targetPoint" />
          </mxGeometry>
        </mxCell>
        <mxCell id="IYP4boaDb1MK-Y9kAv3H-21" value="n" style="edgeLabel;html=1;align=center;verticalAlign=middle;resizable=0;points=[];" vertex="1" connectable="0" parent="IYP4boaDb1MK-Y9kAv3H-18">
          <mxGeometry x="0.7778" relative="1" as="geometry">
            <mxPoint y="10" as="offset" />
          </mxGeometry>
        </mxCell>
        <mxCell id="IYP4boaDb1MK-Y9kAv3H-22" value="m" style="edgeLabel;html=1;align=center;verticalAlign=middle;resizable=0;points=[];" vertex="1" connectable="0" parent="IYP4boaDb1MK-Y9kAv3H-18">
          <mxGeometry x="-0.7667" relative="1" as="geometry">
            <mxPoint y="10" as="offset" />
          </mxGeometry>
        </mxCell>
        <mxCell id="IYP4boaDb1MK-Y9kAv3H-28" value="n" style="edgeStyle=orthogonalEdgeStyle;rounded=0;orthogonalLoop=1;jettySize=auto;html=1;exitX=0.5;exitY=1;exitDx=0;exitDy=0;entryX=0.5;entryY=0;entryDx=0;entryDy=0;startArrow=classic;startFill=1;" edge="1" parent="1" source="IYP4boaDb1MK-Y9kAv3H-23" target="IYP4boaDb1MK-Y9kAv3H-26">
          <mxGeometry x="-0.8333" y="16" relative="1" as="geometry">
            <mxPoint as="offset" />
          </mxGeometry>
        </mxCell>
        <mxCell id="IYP4boaDb1MK-Y9kAv3H-35" value="m" style="edgeLabel;html=1;align=center;verticalAlign=middle;resizable=0;points=[];" vertex="1" connectable="0" parent="IYP4boaDb1MK-Y9kAv3H-28">
          <mxGeometry x="-0.1833" y="-1" relative="1" as="geometry">
            <mxPoint x="17" y="51" as="offset" />
          </mxGeometry>
        </mxCell>
        <mxCell id="IYP4boaDb1MK-Y9kAv3H-23" value="Bücher" style="rounded=0;whiteSpace=wrap;html=1;" vertex="1" parent="1">
          <mxGeometry x="264" y="740" width="120" height="60" as="geometry" />
        </mxCell>
        <mxCell id="IYP4boaDb1MK-Y9kAv3H-33" value="m" style="edgeStyle=orthogonalEdgeStyle;rounded=0;orthogonalLoop=1;jettySize=auto;html=1;exitX=0.5;exitY=1;exitDx=0;exitDy=0;entryX=0.25;entryY=0;entryDx=0;entryDy=0;startArrow=classic;startFill=1;" edge="1" parent="1" source="IYP4boaDb1MK-Y9kAv3H-24" target="IYP4boaDb1MK-Y9kAv3H-23">
          <mxGeometry x="-0.9107" y="-20" relative="1" as="geometry">
            <mxPoint as="offset" />
          </mxGeometry>
        </mxCell>
        <mxCell id="IYP4boaDb1MK-Y9kAv3H-34" value="n" style="edgeLabel;html=1;align=center;verticalAlign=middle;resizable=0;points=[];" vertex="1" connectable="0" parent="IYP4boaDb1MK-Y9kAv3H-33">
          <mxGeometry x="0.2857" y="-2" relative="1" as="geometry">
            <mxPoint x="16" y="18" as="offset" />
          </mxGeometry>
        </mxCell>
        <mxCell id="IYP4boaDb1MK-Y9kAv3H-24" value="&lt;div&gt;Autoren&lt;/div&gt;" style="rounded=0;whiteSpace=wrap;html=1;" vertex="1" parent="1">
          <mxGeometry x="90" y="600" width="120" height="60" as="geometry" />
        </mxCell>
        <mxCell id="IYP4boaDb1MK-Y9kAv3H-30" value="1" style="edgeStyle=orthogonalEdgeStyle;rounded=0;orthogonalLoop=1;jettySize=auto;html=1;exitX=0.5;exitY=1;exitDx=0;exitDy=0;entryX=0.75;entryY=0;entryDx=0;entryDy=0;startArrow=classic;startFill=1;" edge="1" parent="1" source="IYP4boaDb1MK-Y9kAv3H-25" target="IYP4boaDb1MK-Y9kAv3H-23">
          <mxGeometry x="-0.898" y="10" relative="1" as="geometry">
            <mxPoint as="offset" />
          </mxGeometry>
        </mxCell>
        <mxCell id="IYP4boaDb1MK-Y9kAv3H-31" value="n" style="edgeLabel;html=1;align=center;verticalAlign=middle;resizable=0;points=[];" vertex="1" connectable="0" parent="IYP4boaDb1MK-Y9kAv3H-30">
          <mxGeometry x="-0.2551" relative="1" as="geometry">
            <mxPoint x="-77" y="20" as="offset" />
          </mxGeometry>
        </mxCell>
        <mxCell id="IYP4boaDb1MK-Y9kAv3H-25" value="Verlage" style="rounded=0;whiteSpace=wrap;html=1;" vertex="1" parent="1">
          <mxGeometry x="430" y="600" width="120" height="60" as="geometry" />
        </mxCell>
        <mxCell id="IYP4boaDb1MK-Y9kAv3H-26" value="Kunden" style="rounded=0;whiteSpace=wrap;html=1;" vertex="1" parent="1">
          <mxGeometry x="264" y="920" width="120" height="60" as="geometry" />
        </mxCell>
        <mxCell id="IYP4boaDb1MK-Y9kAv3H-37" value="1" style="edgeStyle=orthogonalEdgeStyle;rounded=0;orthogonalLoop=1;jettySize=auto;html=1;exitX=0.5;exitY=1;exitDx=0;exitDy=0;startArrow=classic;startFill=1;" edge="1" parent="1" source="IYP4boaDb1MK-Y9kAv3H-39" target="IYP4boaDb1MK-Y9kAv3H-51">
          <mxGeometry x="-0.8333" y="16" relative="1" as="geometry">
            <mxPoint as="offset" />
            <mxPoint x="1120" y="1030" as="targetPoint" />
          </mxGeometry>
        </mxCell>
        <mxCell id="IYP4boaDb1MK-Y9kAv3H-38" value="m" style="edgeLabel;html=1;align=center;verticalAlign=middle;resizable=0;points=[];" vertex="1" connectable="0" parent="IYP4boaDb1MK-Y9kAv3H-37">
          <mxGeometry x="-0.1833" y="-1" relative="1" as="geometry">
            <mxPoint x="17" y="51" as="offset" />
          </mxGeometry>
        </mxCell>
        <mxCell id="IYP4boaDb1MK-Y9kAv3H-55" value="n" style="edgeLabel;html=1;align=center;verticalAlign=middle;resizable=0;points=[];" vertex="1" connectable="0" parent="IYP4boaDb1MK-Y9kAv3H-37">
          <mxGeometry x="0.5256" relative="1" as="geometry">
            <mxPoint x="10" y="7" as="offset" />
          </mxGeometry>
        </mxCell>
        <mxCell id="IYP4boaDb1MK-Y9kAv3H-39" value="Bücher" style="rounded=0;whiteSpace=wrap;html=1;" vertex="1" parent="1">
          <mxGeometry x="1134" y="740" width="120" height="60" as="geometry" />
        </mxCell>
        <mxCell id="IYP4boaDb1MK-Y9kAv3H-40" value="1" style="edgeStyle=orthogonalEdgeStyle;rounded=0;orthogonalLoop=1;jettySize=auto;html=1;exitX=0.5;exitY=1;exitDx=0;exitDy=0;startArrow=classic;startFill=1;" edge="1" parent="1" source="IYP4boaDb1MK-Y9kAv3H-42" target="IYP4boaDb1MK-Y9kAv3H-47">
          <mxGeometry x="-0.9107" y="-20" relative="1" as="geometry">
            <mxPoint as="offset" />
          </mxGeometry>
        </mxCell>
        <mxCell id="IYP4boaDb1MK-Y9kAv3H-41" value="n" style="edgeLabel;html=1;align=center;verticalAlign=middle;resizable=0;points=[];" vertex="1" connectable="0" parent="IYP4boaDb1MK-Y9kAv3H-40">
          <mxGeometry x="0.2857" y="-2" relative="1" as="geometry">
            <mxPoint x="16" y="18" as="offset" />
          </mxGeometry>
        </mxCell>
        <mxCell id="IYP4boaDb1MK-Y9kAv3H-42" value="&lt;div&gt;Autoren&lt;/div&gt;" style="rounded=0;whiteSpace=wrap;html=1;" vertex="1" parent="1">
          <mxGeometry x="930" y="600" width="120" height="60" as="geometry" />
        </mxCell>
        <mxCell id="IYP4boaDb1MK-Y9kAv3H-43" value="1" style="edgeStyle=orthogonalEdgeStyle;rounded=0;orthogonalLoop=1;jettySize=auto;html=1;exitX=0.5;exitY=1;exitDx=0;exitDy=0;entryX=0.5;entryY=0;entryDx=0;entryDy=0;startArrow=classic;startFill=1;" edge="1" parent="1" source="IYP4boaDb1MK-Y9kAv3H-45" target="IYP4boaDb1MK-Y9kAv3H-39">
          <mxGeometry x="-0.898" y="10" relative="1" as="geometry">
            <mxPoint as="offset" />
          </mxGeometry>
        </mxCell>
        <mxCell id="IYP4boaDb1MK-Y9kAv3H-44" value="n" style="edgeLabel;html=1;align=center;verticalAlign=middle;resizable=0;points=[];" vertex="1" connectable="0" parent="IYP4boaDb1MK-Y9kAv3H-43">
          <mxGeometry x="-0.2551" relative="1" as="geometry">
            <mxPoint x="-14" y="30" as="offset" />
          </mxGeometry>
        </mxCell>
        <mxCell id="IYP4boaDb1MK-Y9kAv3H-45" value="Verlage" style="rounded=0;whiteSpace=wrap;html=1;" vertex="1" parent="1">
          <mxGeometry x="1134" y="600" width="120" height="60" as="geometry" />
        </mxCell>
        <mxCell id="IYP4boaDb1MK-Y9kAv3H-52" style="edgeStyle=orthogonalEdgeStyle;rounded=0;orthogonalLoop=1;jettySize=auto;html=1;exitX=0.5;exitY=0;exitDx=0;exitDy=0;entryX=0.5;entryY=1;entryDx=0;entryDy=0;startArrow=classic;startFill=1;" edge="1" parent="1" source="IYP4boaDb1MK-Y9kAv3H-46" target="IYP4boaDb1MK-Y9kAv3H-51">
          <mxGeometry relative="1" as="geometry" />
        </mxCell>
        <mxCell id="IYP4boaDb1MK-Y9kAv3H-53" value="1" style="edgeLabel;html=1;align=center;verticalAlign=middle;resizable=0;points=[];" vertex="1" connectable="0" parent="IYP4boaDb1MK-Y9kAv3H-52">
          <mxGeometry x="-0.7204" y="-2" relative="1" as="geometry">
            <mxPoint as="offset" />
          </mxGeometry>
        </mxCell>
        <mxCell id="IYP4boaDb1MK-Y9kAv3H-54" value="n" style="edgeLabel;html=1;align=center;verticalAlign=middle;resizable=0;points=[];" vertex="1" connectable="0" parent="IYP4boaDb1MK-Y9kAv3H-52">
          <mxGeometry x="0.7742" y="-3" relative="1" as="geometry">
            <mxPoint as="offset" />
          </mxGeometry>
        </mxCell>
        <mxCell id="IYP4boaDb1MK-Y9kAv3H-46" value="Kunden" style="rounded=0;whiteSpace=wrap;html=1;" vertex="1" parent="1">
          <mxGeometry x="1134" y="1070" width="120" height="60" as="geometry" />
        </mxCell>
        <mxCell id="IYP4boaDb1MK-Y9kAv3H-47" value="Buch_Autor" style="rounded=0;whiteSpace=wrap;html=1;" vertex="1" parent="1">
          <mxGeometry x="930" y="740" width="120" height="60" as="geometry" />
        </mxCell>
        <mxCell id="IYP4boaDb1MK-Y9kAv3H-48" value="" style="endArrow=classic;startArrow=classic;html=1;rounded=0;entryX=0;entryY=0.5;entryDx=0;entryDy=0;exitX=1;exitY=0.5;exitDx=0;exitDy=0;" edge="1" parent="1" source="IYP4boaDb1MK-Y9kAv3H-47" target="IYP4boaDb1MK-Y9kAv3H-39">
          <mxGeometry width="50" height="50" relative="1" as="geometry">
            <mxPoint x="990" y="810" as="sourcePoint" />
            <mxPoint x="1040" y="760" as="targetPoint" />
          </mxGeometry>
        </mxCell>
        <mxCell id="IYP4boaDb1MK-Y9kAv3H-49" value="1" style="edgeLabel;html=1;align=center;verticalAlign=middle;resizable=0;points=[];" vertex="1" connectable="0" parent="IYP4boaDb1MK-Y9kAv3H-48">
          <mxGeometry x="0.7143" y="2" relative="1" as="geometry">
            <mxPoint y="-8" as="offset" />
          </mxGeometry>
        </mxCell>
        <mxCell id="IYP4boaDb1MK-Y9kAv3H-50" value="n" style="edgeLabel;html=1;align=center;verticalAlign=middle;resizable=0;points=[];" vertex="1" connectable="0" parent="IYP4boaDb1MK-Y9kAv3H-48">
          <mxGeometry x="-0.5714" y="2" relative="1" as="geometry">
            <mxPoint y="-8" as="offset" />
          </mxGeometry>
        </mxCell>
        <mxCell id="IYP4boaDb1MK-Y9kAv3H-51" value="Ausleihe" style="rounded=0;whiteSpace=wrap;html=1;" vertex="1" parent="1">
          <mxGeometry x="1134" y="900" width="120" height="60" as="geometry" />
        </mxCell>
        <mxCell id="IYP4boaDb1MK-Y9kAv3H-62" value="n" style="edgeStyle=orthogonalEdgeStyle;rounded=0;orthogonalLoop=1;jettySize=auto;html=1;exitX=0.5;exitY=0;exitDx=0;exitDy=0;startArrow=none;startFill=0;endArrow=none;endFill=0;" edge="1" parent="1" source="IYP4boaDb1MK-Y9kAv3H-56" target="IYP4boaDb1MK-Y9kAv3H-57">
          <mxGeometry x="0.75" y="-10" relative="1" as="geometry">
            <Array as="points">
              <mxPoint x="950" y="150" />
              <mxPoint x="950" y="150" />
            </Array>
            <mxPoint as="offset" />
          </mxGeometry>
        </mxCell>
        <mxCell id="IYP4boaDb1MK-Y9kAv3H-65" value="m" style="edgeLabel;html=1;align=center;verticalAlign=middle;resizable=0;points=[];" vertex="1" connectable="0" parent="IYP4boaDb1MK-Y9kAv3H-62">
          <mxGeometry x="-0.0818" y="-5" relative="1" as="geometry">
            <mxPoint x="5" y="27" as="offset" />
          </mxGeometry>
        </mxCell>
        <mxCell id="IYP4boaDb1MK-Y9kAv3H-56" value="Pizzen" style="rounded=0;whiteSpace=wrap;html=1;" vertex="1" parent="1">
          <mxGeometry x="890" y="170" width="120" height="60" as="geometry" />
        </mxCell>
        <mxCell id="IYP4boaDb1MK-Y9kAv3H-57" value="Zutaten" style="rounded=0;whiteSpace=wrap;html=1;" vertex="1" parent="1">
          <mxGeometry x="890" y="30" width="120" height="60" as="geometry" />
        </mxCell>
        <mxCell id="IYP4boaDb1MK-Y9kAv3H-58" value="Kunden" style="rounded=0;whiteSpace=wrap;html=1;" vertex="1" parent="1">
          <mxGeometry x="1110" y="320" width="120" height="60" as="geometry" />
        </mxCell>
        <mxCell id="IYP4boaDb1MK-Y9kAv3H-59" value="Bestellungen" style="rounded=0;whiteSpace=wrap;html=1;" vertex="1" parent="1">
          <mxGeometry x="1110" y="170" width="120" height="60" as="geometry" />
        </mxCell>
        <mxCell id="IYP4boaDb1MK-Y9kAv3H-60" value="Fahrer" style="rounded=0;whiteSpace=wrap;html=1;" vertex="1" parent="1">
          <mxGeometry x="1380" y="30" width="120" height="60" as="geometry" />
        </mxCell>
        <mxCell id="IYP4boaDb1MK-Y9kAv3H-72" value="n" style="edgeStyle=orthogonalEdgeStyle;rounded=0;orthogonalLoop=1;jettySize=auto;html=1;exitX=0.5;exitY=1;exitDx=0;exitDy=0;startArrow=none;startFill=0;endArrow=none;endFill=0;" edge="1" parent="1" source="IYP4boaDb1MK-Y9kAv3H-61" target="IYP4boaDb1MK-Y9kAv3H-59">
          <mxGeometry x="-0.75" y="-10" relative="1" as="geometry">
            <Array as="points">
              <mxPoint x="1170" y="130" />
              <mxPoint x="1170" y="130" />
            </Array>
            <mxPoint as="offset" />
          </mxGeometry>
        </mxCell>
        <mxCell id="IYP4boaDb1MK-Y9kAv3H-73" value="1" style="edgeLabel;html=1;align=center;verticalAlign=middle;resizable=0;points=[];" vertex="1" connectable="0" parent="IYP4boaDb1MK-Y9kAv3H-72">
          <mxGeometry x="0.7091" y="5" relative="1" as="geometry">
            <mxPoint as="offset" />
          </mxGeometry>
        </mxCell>
        <mxCell id="IYP4boaDb1MK-Y9kAv3H-74" style="edgeStyle=orthogonalEdgeStyle;rounded=0;orthogonalLoop=1;jettySize=auto;html=1;exitX=1;exitY=0.5;exitDx=0;exitDy=0;entryX=0;entryY=0.5;entryDx=0;entryDy=0;startArrow=none;startFill=0;endArrow=none;endFill=0;" edge="1" parent="1" source="IYP4boaDb1MK-Y9kAv3H-61" target="IYP4boaDb1MK-Y9kAv3H-60">
          <mxGeometry relative="1" as="geometry" />
        </mxCell>
        <mxCell id="IYP4boaDb1MK-Y9kAv3H-75" value="n" style="edgeLabel;html=1;align=center;verticalAlign=middle;resizable=0;points=[];" vertex="1" connectable="0" parent="IYP4boaDb1MK-Y9kAv3H-74">
          <mxGeometry x="-0.68" y="2" relative="1" as="geometry">
            <mxPoint x="-14" y="12" as="offset" />
          </mxGeometry>
        </mxCell>
        <mxCell id="IYP4boaDb1MK-Y9kAv3H-76" value="1" style="edgeLabel;html=1;align=center;verticalAlign=middle;resizable=0;points=[];" vertex="1" connectable="0" parent="IYP4boaDb1MK-Y9kAv3H-74">
          <mxGeometry x="0.72" y="2" relative="1" as="geometry">
            <mxPoint y="-8" as="offset" />
          </mxGeometry>
        </mxCell>
        <mxCell id="IYP4boaDb1MK-Y9kAv3H-61" value="Touren" style="rounded=0;whiteSpace=wrap;html=1;" vertex="1" parent="1">
          <mxGeometry x="1110" y="30" width="120" height="60" as="geometry" />
        </mxCell>
        <mxCell id="IYP4boaDb1MK-Y9kAv3H-66" value="" style="endArrow=none;startArrow=none;html=1;rounded=0;exitX=1;exitY=0.5;exitDx=0;exitDy=0;entryX=0;entryY=0.5;entryDx=0;entryDy=0;startFill=0;endFill=0;" edge="1" parent="1" source="IYP4boaDb1MK-Y9kAv3H-56" target="IYP4boaDb1MK-Y9kAv3H-59">
          <mxGeometry width="50" height="50" relative="1" as="geometry">
            <mxPoint x="1370" y="360" as="sourcePoint" />
            <mxPoint x="1420" y="310" as="targetPoint" />
          </mxGeometry>
        </mxCell>
        <mxCell id="IYP4boaDb1MK-Y9kAv3H-67" value="m" style="edgeLabel;html=1;align=center;verticalAlign=middle;resizable=0;points=[];" vertex="1" connectable="0" parent="IYP4boaDb1MK-Y9kAv3H-66">
          <mxGeometry x="-0.2" y="-4" relative="1" as="geometry">
            <mxPoint x="-30" y="6" as="offset" />
          </mxGeometry>
        </mxCell>
        <mxCell id="IYP4boaDb1MK-Y9kAv3H-68" value="n" style="edgeLabel;html=1;align=center;verticalAlign=middle;resizable=0;points=[];" vertex="1" connectable="0" parent="IYP4boaDb1MK-Y9kAv3H-66">
          <mxGeometry x="0.5" y="1" relative="1" as="geometry">
            <mxPoint x="15" y="-19" as="offset" />
          </mxGeometry>
        </mxCell>
        <mxCell id="IYP4boaDb1MK-Y9kAv3H-69" value="" style="endArrow=none;startArrow=none;html=1;rounded=0;entryX=0.5;entryY=1;entryDx=0;entryDy=0;exitX=0.5;exitY=0;exitDx=0;exitDy=0;startFill=0;endFill=0;" edge="1" parent="1" source="IYP4boaDb1MK-Y9kAv3H-58" target="IYP4boaDb1MK-Y9kAv3H-59">
          <mxGeometry width="50" height="50" relative="1" as="geometry">
            <mxPoint x="1170" y="310" as="sourcePoint" />
            <mxPoint x="1420" y="310" as="targetPoint" />
          </mxGeometry>
        </mxCell>
        <mxCell id="IYP4boaDb1MK-Y9kAv3H-70" value="1" style="edgeLabel;html=1;align=center;verticalAlign=middle;resizable=0;points=[];" vertex="1" connectable="0" parent="IYP4boaDb1MK-Y9kAv3H-69">
          <mxGeometry x="0.6" relative="1" as="geometry">
            <mxPoint x="10" y="52" as="offset" />
          </mxGeometry>
        </mxCell>
        <mxCell id="IYP4boaDb1MK-Y9kAv3H-71" value="n" style="edgeLabel;html=1;align=center;verticalAlign=middle;resizable=0;points=[];" vertex="1" connectable="0" parent="IYP4boaDb1MK-Y9kAv3H-69">
          <mxGeometry x="-0.6444" y="-1" relative="1" as="geometry">
            <mxPoint x="11" y="-64" as="offset" />
          </mxGeometry>
        </mxCell>
      </root>
    </mxGraphModel>
  </diagram>
</mxfile>
